<?xml version="1.0" standalone="no"?>
<!DOCTYPE svg PUBLIC "-//W3C//DTD SVG 20010904//EN"
 "http://www.w3.org/TR/2001/REC-SVG-20010904/DTD/svg10.dtd">
<svg version="1.0" xmlns="http://www.w3.org/2000/svg"
 width="748.000000pt" height="748.000000pt" viewBox="0 0 748.000000 748.000000"
 preserveAspectRatio="xMidYMid meet">
<metadata>
Created by potrace 1.11, written by Peter Selinger 2001-2013
</metadata>
<g transform="translate(0.000000,748.000000) scale(0.100000,-0.100000)"
fill="#000000" stroke="none">
<path d="M1050 7128 c-109 -11 -194 -35 -290 -82 -159 -77 -292 -243 -322
-401 -6 -33 -14 -63 -17 -66 -3 -4 -27 -9 -53 -12 -143 -17 -323 -178 -359
-320 -18 -72 -2 -210 34 -287 37 -80 113 -169 177 -207 35 -20 36 -26 12 -50
-84 -81 -174 -303 -197 -482 -9 -70 -9 -203 0 -261 23 -157 140 -320 335 -468
30 -23 60 -46 65 -50 93 -72 357 -211 535 -282 172 -68 239 -110 322 -199 66
-70 98 -109 98 -118 0 -3 6 -14 14 -22 7 -9 24 -36 37 -61 13 -25 28 -52 35
-60 44 -59 141 -369 168 -537 35 -219 40 -302 41 -603 0 -237 -4 -331 -19
-438 -3 -18 -8 -52 -11 -75 -14 -98 -59 -279 -92 -366 -106 -286 -253 -432
-446 -447 -136 -10 -165 -14 -232 -29 -88 -20 -188 -69 -208 -102 -4 -6 -15
-19 -23 -28 -42 -42 -63 -41 1172 -38 649 2 1186 4 1194 3 8 0 38 1 65 1 28 1
59 0 70 -1 19 -2 52 -1 78 1 6 0 30 0 52 0 52 -2 254 -2 280 0 17 1 55 0 110
-1 106 -4 3749 11 3753 15 3 3 0 16 -6 30 -25 55 -161 110 -342 140 -25 4 -53
9 -64 11 -10 2 -44 6 -75 9 -31 4 -67 8 -81 10 -27 4 -122 12 -235 20 -203 15
-610 25 -997 25 -240 1 -286 3 -282 15 6 16 -10 50 -38 79 -39 41 -69 84 -74
107 -7 35 -20 132 -19 148 0 16 36 28 78 26 l27 -2 -3 84 c-5 102 11 127 41
66 11 -21 22 -55 26 -76 6 -32 10 -36 29 -32 66 14 70 12 85 -35 7 -25 15 -54
16 -65 2 -11 6 -39 10 -62 4 -27 1 -61 -9 -97 -18 -62 -12 -99 19 -119 29 -20
59 -4 90 47 29 49 27 110 -10 231 -34 115 -38 136 -28 134 17 -3 54 13 54 23
0 10 -59 152 -107 257 -18 42 -21 56 -12 62 7 4 17 5 21 3 12 -8 10 1 -16 60
-23 51 -30 81 -27 115 2 29 110 -61 147 -124 26 -45 32 -69 33 -133 1 -36 4
-43 18 -40 10 2 18 8 18 13 1 29 17 36 43 19 15 -10 32 -25 39 -33 10 -14 12
-14 18 2 13 32 -44 133 -130 231 -45 50 -95 115 -95 122 0 5 14 19 32 31 l31
22 -39 36 c-44 41 -88 67 -151 85 l-43 13 36 24 c28 20 33 27 23 39 -9 11 -8
14 9 14 25 0 52 35 45 59 -3 11 6 30 20 45 18 20 24 35 21 54 -3 15 -9 29 -15
30 -14 5 -11 20 10 50 42 59 30 103 -24 97 -24 -2 -25 0 -20 27 5 19 1 37 -9
53 -14 21 -20 23 -42 15 -21 -8 -25 -7 -23 8 3 36 -2 53 -21 72 -24 24 -68 26
-76 5 -9 -22 -29 -18 -43 9 -17 30 -46 43 -94 40 -46 -2 -70 -21 -64 -50 4
-22 4 -22 -35 -7 -22 9 -49 12 -64 9 -23 -6 -26 -11 -22 -41 4 -34 4 -34 -33
-30 -31 3 -40 -1 -53 -20 -20 -31 -20 -54 -1 -62 13 -4 12 -8 -7 -21 -13 -8
-33 -24 -45 -35 l-23 -20 21 -36 c17 -29 19 -38 8 -58 -7 -13 -16 -23 -19 -23
-13 0 -44 93 -55 165 -13 82 0 195 25 210 12 7 14 65 3 65 -5 0 -21 -11 -37
-24 -30 -23 -30 -23 -60 -5 -61 37 -110 21 -110 -37 0 -28 7 -43 31 -64 17
-15 38 -32 46 -36 9 -5 18 -30 21 -59 3 -27 8 -61 10 -75 11 -61 28 -170 28
-175 -1 -2 3 -18 8 -34 7 -27 4 -37 -30 -78 l-38 -49 49 -54 c88 -97 134 -182
154 -281 20 -95 24 -126 30 -209 5 -58 12 -73 38 -83 5 -1 10 -69 12 -151 2
-81 6 -150 8 -153 3 -2 24 1 47 7 23 6 43 10 45 8 3 -3 13 -63 20 -128 2 -14
4 -26 5 -27 3 -4 6 -13 14 -58 5 -22 19 -60 32 -84 13 -24 22 -46 19 -49 -2
-3 -109 -7 -237 -9 -128 -2 -286 -5 -350 -7 l-116 -3 -7 34 c-9 48 0 66 43 90
49 28 86 69 104 118 9 22 16 43 16 48 3 34 16 75 28 92 l15 20 17 -20 c37 -43
48 -47 92 -34 68 21 69 35 7 121 -15 22 -16 33 -7 71 11 52 3 83 -33 127 -12
15 -26 34 -32 43 -5 9 -27 18 -48 21 -31 5 -42 2 -55 -13 -25 -29 -76 -34
-103 -10 -42 37 -80 20 -143 -64 -16 -20 -40 -43 -55 -50 -14 -7 -25 -18 -24
-23 1 -6 4 -28 7 -50 5 -46 15 -74 26 -74 4 0 25 7 46 16 29 12 35 13 27 2
-32 -38 -239 -72 -271 -45 -8 6 -53 12 -100 13 -48 1 -90 2 -94 3 -13 2 -9 51
7 81 9 17 12 30 8 30 -4 0 -2 5 5 12 17 17 15 68 -4 124 -30 89 -20 118 82
229 25 28 57 71 70 98 l24 47 38 -15 c20 -8 47 -27 60 -41 22 -25 31 -74 13
-74 -5 0 -7 -9 -4 -20 6 -24 33 -26 72 -5 38 19 53 62 36 102 -14 32 -27 43
-105 86 -25 14 -46 32 -48 40 -4 20 55 77 73 71 24 -10 103 140 108 204 1 13
16 29 39 42 21 11 39 20 40 20 2 -1 20 1 41 5 30 6 37 12 37 30 0 37 -33 58
-79 51 -54 -7 -86 -30 -106 -74 -28 -64 -43 -87 -59 -90 -22 -5 -73 34 -82 61
-12 39 -82 95 -111 89 -19 -4 -16 8 17 63 29 49 38 89 22 99 -5 3 -21 7 -37
10 -16 3 -42 15 -57 26 -16 12 -34 17 -44 13 -14 -5 -16 -2 -12 20 3 15 -1 35
-8 44 -13 17 -13 17 -14 -2 0 -11 -11 -33 -24 -50 -26 -32 -17 -34 -94 22 -32
22 -39 8 -35 -69 2 -45 14 -87 40 -148 36 -83 43 -134 29 -205 -3 -11 -5 -26
-5 -32 -1 -7 -25 -37 -53 -67 -63 -64 -72 -75 -160 -186 -38 -47 -72 -90 -78
-97 -5 -6 -24 -39 -40 -72 -63 -124 -163 -203 -282 -222 -102 -17 -127 -17
-166 2 -31 16 -76 68 -77 89 0 3 -15 29 -34 58 -34 54 -62 66 -79 35 -6 -9 -6
-29 -1 -45 4 -16 8 -29 8 -31 0 -1 4 -15 10 -30 6 -16 11 -32 11 -36 0 -39 69
-114 115 -126 17 -5 37 -10 45 -13 8 -2 47 -6 85 -7 81 -3 165 22 274 79 l67
35 29 -52 c15 -29 31 -54 36 -58 5 -3 4 -21 -1 -40 -6 -18 -13 -52 -15 -74 -3
-27 -12 -45 -27 -55 -12 -8 -47 -36 -78 -63 -68 -58 -98 -67 -170 -50 -56 13
-123 17 -150 10 -48 -12 -100 -31 -100 -36 0 -16 50 -61 89 -82 67 -35 140
-31 219 11 34 18 62 37 62 41 0 5 6 9 14 9 11 0 24 -51 38 -155 1 -5 9 -36 19
-67 l17 -58 -136 -1 c-495 -2 -537 4 -616 91 -66 74 -160 267 -201 415 -44
161 -80 311 -90 379 -3 21 -7 41 -9 45 -2 3 -6 29 -10 56 -3 28 -8 59 -10 70
-17 86 -39 326 -39 425 0 92 6 146 32 270 65 311 183 526 363 666 31 24 61 44
66 44 6 0 12 4 14 8 7 19 203 102 274 116 10 3 40 9 65 15 25 6 61 13 80 15
19 3 50 8 69 10 90 14 198 22 400 32 74 3 146 7 160 8 14 1 55 -13 92 -31 48
-23 82 -33 115 -33 41 0 50 -4 60 -25 10 -22 9 -25 -10 -25 -132 -3 -209 -57
-221 -158 -8 -70 65 -204 119 -218 14 -3 25 -9 25 -13 0 -12 93 -32 147 -33
170 -1 317 139 300 286 -5 38 -26 105 -37 116 -3 3 -10 14 -16 25 -6 11 -31
34 -56 51 -37 25 -54 31 -83 27 -40 -4 -90 -26 -113 -50 -18 -18 -29 -7 -37
36 -3 19 -8 38 -11 42 -10 18 -13 17 541 43 357 17 366 18 418 38 18 7 26 16
23 25 -4 8 -6 18 -6 21 0 4 -14 23 -30 42 -16 19 -30 38 -30 41 0 10 -112 56
-155 64 -121 23 -222 29 -443 30 l-202 0 50 45 c28 25 75 79 105 120 30 41 65
88 77 104 13 16 25 34 27 40 2 6 9 18 17 26 21 25 81 152 94 200 21 79 24 103
25 200 0 81 -4 125 -20 230 -1 8 -5 22 -8 30 -3 8 -11 38 -18 65 -15 58 -73
170 -109 211 -46 53 -104 91 -176 116 -64 23 -85 25 -200 22 -71 -1 -140 -5
-154 -8 -14 -3 -47 -10 -75 -16 -27 -7 -59 -15 -70 -20 -11 -5 -42 -18 -68
-29 -122 -52 -268 -177 -452 -386 -76 -86 -146 -155 -158 -155 -7 0 38 94 56
115 10 13 211 344 248 410 80 141 144 292 156 365 44 267 -34 454 -252 603
-56 38 -167 97 -190 101 -5 1 -14 4 -20 8 -11 7 -147 48 -179 54 -12 2 -32 6
-46 9 -117 22 -266 26 -343 9 -68 -16 -70 -16 -110 -32 -16 -7 -30 -12 -33
-12 -15 0 -151 -99 -192 -140 -73 -72 -106 -134 -106 -196 l0 -51 -70 -23
c-39 -12 -108 -42 -153 -66 -46 -24 -83 -41 -83 -39 0 2 9 20 20 40 11 19 18
35 15 35 -2 0 10 33 27 73 27 65 31 83 32 182 1 122 -4 167 -29 240 -53 155
-178 284 -342 353 -122 52 -394 86 -553 70z m450 -333 c240 -40 197 -279 -118
-653 -30 -36 -92 -163 -97 -199 -2 -15 -4 -29 -5 -30 -5 -7 -2 -52 5 -88 15
-72 78 -142 165 -182 44 -20 54 -21 93 -1 41 20 42 18 27 -47 -5 -22 -11 -60
-15 -85 -3 -25 -8 -52 -10 -60 -2 -8 -6 -37 -10 -65 -3 -27 -8 -61 -10 -75 -2
-14 -6 -47 -10 -75 -4 -27 -8 -63 -11 -80 -2 -16 -6 -48 -9 -70 -3 -22 -7 -51
-10 -65 -2 -13 -7 -40 -10 -60 -3 -19 -9 -48 -13 -64 -8 -28 -8 -28 -68 50
-63 82 -164 229 -164 239 0 3 -11 22 -24 43 -23 37 -111 209 -126 247 -4 11
-16 37 -25 59 -22 49 -101 291 -109 331 -3 17 -17 82 -31 145 -13 63 -27 131
-30 150 -3 20 -8 47 -10 60 -3 14 -7 43 -10 65 -3 22 -7 54 -9 70 -8 48 -8
157 -1 200 17 99 77 161 190 198 54 18 245 51 252 43 2 -2 16 -1 31 3 31 9
108 7 172 -4z m1639 -427 c147 -40 224 -120 224 -233 0 -47 -19 -149 -32 -170
-3 -5 -6 -12 -6 -15 -4 -33 -201 -441 -234 -485 -8 -9 -76 -137 -157 -292 -84
-162 -115 -218 -144 -262 -16 -26 -30 -53 -30 -59 0 -5 -3 -12 -7 -14 -11 -4
-73 -97 -73 -107 0 -5 -4 -11 -8 -13 -4 -1 -28 -30 -54 -63 -103 -135 -234
-245 -347 -291 -78 -32 -185 -30 -261 5 -136 61 -225 159 -246 271 -11 59 -8
262 4 244 14 -21 87 -37 167 -37 67 0 92 5 157 32 43 18 88 41 101 51 14 11
27 16 31 13 3 -3 6 -1 6 5 0 7 5 12 10 12 6 0 16 4 23 10 7 5 55 42 107 82
218 165 474 455 550 623 44 99 51 141 36 240 -20 129 -112 260 -224 315 -24
12 -42 24 -39 26 13 13 151 84 172 88 6 1 15 5 21 8 6 4 26 10 45 13 18 3 35
8 37 10 7 7 137 2 171 -7z m-2634 -311 c15 -23 39 -54 53 -70 32 -34 21 -49
-43 -55 -95 -7 -155 35 -163 116 -3 40 2 61 34 131 l37 82 27 -81 c15 -44 40
-99 55 -123z m2135 -67 c31 -22 46 -66 35 -102 -19 -63 -122 -176 -229 -250
-17 -12 -33 -25 -36 -28 -3 -4 -56 -41 -117 -83 -291 -198 -341 -233 -389
-268 -28 -21 -66 -51 -85 -68 -40 -37 -46 -30 -43 61 8 272 73 454 204 576 30
29 126 83 155 88 6 1 33 11 61 22 58 23 224 69 269 75 68 8 146 -2 175 -23z
m-1940 -510 c36 -36 78 -90 94 -120 25 -48 74 -167 80 -195 2 -5 8 -30 15 -55
7 -25 15 -56 18 -69 2 -14 6 -28 9 -33 3 -5 8 -21 10 -36 3 -15 14 -57 25 -95
30 -102 56 -229 52 -252 -2 -11 -5 -27 -6 -35 -6 -42 -45 -70 -90 -63 -64 9
-253 122 -341 203 -121 113 -169 215 -172 374 -2 116 12 166 103 360 l58 124
40 -22 c22 -11 69 -50 105 -86z m3580 -282 c60 -16 121 -74 140 -132 16 -50 8
-172 -14 -215 -9 -17 -17 -33 -17 -36 -3 -23 -13 -45 -20 -45 -5 0 -9 -6 -9
-12 0 -14 -34 -57 -85 -112 -65 -70 -156 -126 -250 -157 -61 -20 -63 -20 -180
-25 -179 -6 -189 -8 -218 -22 -54 -27 -71 -85 -48 -162 6 -19 11 -37 11 -40 0
-3 -62 -6 -137 -6 -131 0 -268 -10 -283 -19 -4 -3 -23 -6 -43 -9 -20 -2 -44
-7 -54 -10 -10 -3 -29 -7 -43 -10 -14 -2 -47 -10 -75 -16 -76 -19 -142 -20
-156 -4 -14 17 -4 78 16 98 8 8 15 19 15 24 0 16 149 170 218 224 37 29 69 55
72 58 14 14 70 50 80 50 5 0 10 5 10 10 0 6 5 10 11 10 30 0 171 115 323 263
99 97 168 149 261 198 74 38 201 82 269 93 22 4 41 8 43 10 5 4 143 -1 163 -6z
m-470 -3378 c22 -22 27 -80 8 -81 -7 0 -26 -3 -42 -5 -46 -8 -56 0 -46 37 10
33 37 69 52 69 4 0 17 -9 28 -20z m35 -414 c11 -2 40 -9 65 -15 25 -7 55 -14
68 -17 12 -2 64 -16 115 -30 91 -25 227 -39 227 -22 0 11 23 6 32 -7 15 -19 8
-35 -14 -34 -25 1 -461 -10 -599 -15 -70 -2 -89 0 -107 15 -12 9 -22 23 -22
31 0 17 35 48 54 48 8 0 27 13 42 29 24 26 33 29 73 25 25 -2 55 -6 66 -8z"/>
<path d="M695 799 c-83 -24 -147 -119 -147 -217 0 -166 137 -267 300 -223 160
44 211 290 82 399 -54 46 -157 64 -235 41z m126 -32 c53 -35 77 -96 77 -193 0
-153 -61 -226 -154 -184 -52 23 -83 79 -91 164 -12 136 34 221 128 235 3 1 21
-9 40 -22z"/>
<path d="M1829 799 c-8 -4 -3 -11 12 -19 13 -7 27 -18 32 -24 4 -6 7 -89 6
-184 l-1 -174 -28 -12 c-49 -20 -19 -31 80 -31 69 0 95 4 95 13 0 6 -4 12 -10
13 -37 4 -45 20 -45 90 l0 71 39 -7 c54 -9 123 22 151 67 39 65 17 153 -48
184 -28 13 -65 18 -155 19 -64 0 -122 -2 -128 -6z m217 -39 c24 -18 41 -64 38
-102 -3 -34 -34 -88 -50 -88 -7 0 -18 -2 -26 -5 -7 -3 -19 -1 -27 4 -18 11
-17 191 2 203 16 10 38 6 63 -12z"/>
<path d="M5809 797 c-2 -16 -1 -19 6 -47 6 -24 4 -25 -47 -25 -46 0 -53 -3
-53 -20 0 -18 6 -19 95 -16 66 2 100 7 110 17 12 12 12 14 -5 16 -11 0 -24 2
-30 3 -5 2 -16 3 -23 4 -10 1 -12 10 -7 30 4 19 2 32 -7 37 -21 13 -38 13 -39
1z"/>
<path d="M6581 801 c-7 -5 -10 -14 -7 -20 8 -12 -7 -14 -62 -11 -18 1 -45 -1
-60 -5 l-28 -6 0 -103 c-1 -118 -21 -176 -73 -211 -37 -24 -46 -52 -19 -61 25
-7 81 49 103 103 9 23 23 39 33 40 9 1 23 3 30 5 8 2 20 -15 31 -42 15 -41 19
-45 51 -45 34 0 35 -1 32 -35 -1 -19 2 -41 7 -49 15 -24 31 -2 31 44 0 43 1
43 30 40 31 -4 60 23 60 56 0 31 25 41 51 21 28 -22 72 -15 77 11 2 10 0 16
-5 15 -11 -4 -123 44 -123 53 0 4 7 9 15 13 16 6 10 36 -8 36 -6 0 -18 -7 -28
-16 -15 -14 -23 -14 -53 -3 -59 21 -46 39 28 39 48 0 65 4 70 15 4 12 -5 15
-54 15 -33 0 -69 6 -80 12 -16 10 -23 10 -36 -4 -12 -12 -23 -14 -38 -8 -14 5
-34 3 -56 -7 -33 -14 -34 -15 -16 -28 10 -8 22 -13 25 -11 4 3 26 7 49 11 43
6 43 6 31 -17 -21 -39 -40 -48 -66 -31 -13 9 -31 12 -40 8 -16 -6 -16 -8 4
-25 19 -15 20 -19 7 -24 -22 -9 -46 -7 -40 2 3 5 6 38 7 75 1 38 7 68 13 70 7
3 68 5 136 6 152 2 165 4 165 22 0 13 -7 14 -132 18 -16 1 -23 7 -23 21 0 21
-16 26 -39 11z m108 -207 c25 -13 24 -14 -24 -15 -27 0 -58 -2 -67 -4 -22 -4
-22 0 -2 23 17 21 48 19 93 -4z m21 -54 c0 -5 -8 -10 -17 -11 -26 -1 -104 -1
-128 1 l-20 1 20 9 c28 12 145 12 145 0z m-12 -45 c10 -10 -4 -14 -60 -18 -62
-4 -91 5 -65 19 16 9 116 8 125 -1z"/>
<path d="M3680 792 c0 -5 10 -14 23 -20 12 -7 31 -19 43 -27 19 -14 22 -14 34
0 11 13 7 17 -21 29 -55 22 -79 28 -79 18z"/>
<path d="M4910 791 c0 -15 80 -65 90 -55 5 5 6 14 2 20 -10 14 -92 46 -92 35z"/>
<path d="M7035 783 c-24 -23 -8 -31 72 -35 118 -7 95 32 -29 48 -16 2 -34 -4
-43 -13z"/>
<path d="M4046 775 c3 -8 16 -14 27 -14 28 1 60 -7 87 -21 32 -17 75 -9 75 15
0 23 -43 33 -137 34 -47 1 -56 -2 -52 -14z"/>
<path d="M6054 782 c-6 -4 -14 -19 -18 -35 -6 -27 -76 -87 -101 -87 -22 0 -25
-29 -5 -35 23 -7 54 8 92 42 34 33 58 27 125 -31 44 -37 57 -43 80 -37 51 14
34 39 -47 71 -19 8 -51 24 -71 36 -29 18 -36 27 -32 47 5 26 -6 40 -23 29z"/>
<path d="M4653 765 c-25 -19 -7 -35 43 -39 21 -2 45 -4 52 -5 9 -1 11 -8 7
-21 -3 -11 -4 -20 -1 -20 14 0 56 24 56 32 0 15 -23 34 -50 42 -73 22 -90 23
-107 11z"/>
<path d="M3387 755 c-15 -14 -15 -19 2 -58 29 -67 34 -124 13 -139 -61 -46
-68 -141 -12 -175 36 -23 203 -34 267 -19 20 6 51 52 40 62 -1 2 -20 -2 -42
-7 -22 -6 -81 -12 -132 -14 -79 -4 -94 -2 -116 15 -22 17 -24 24 -17 54 4 20
14 42 22 49 13 14 111 67 123 67 3 1 25 9 50 20 25 11 45 17 45 13 0 -3 7 0
15 7 17 14 19 29 7 48 -6 9 -25 3 -78 -25 -103 -57 -124 -65 -125 -50 0 6 -2
21 -4 32 -2 11 -6 40 -10 65 -9 58 -26 78 -48 55z"/>
<path d="M7375 755 c-16 -8 -56 -21 -88 -30 l-58 -16 4 -67 c5 -81 -8 -117
-50 -144 -37 -22 -40 -30 -18 -48 32 -26 102 52 107 118 2 27 8 34 33 41 16 4
34 5 39 0 5 -4 10 -57 11 -116 2 -128 1 -123 20 -123 18 0 17 -4 19 130 l1
105 28 -3 c15 -2 35 2 43 8 15 13 20 41 7 39 -5 -1 -52 -1 -105 0 -76 1 -98 4
-98 15 0 23 23 34 85 40 69 8 96 26 75 50 -15 19 -16 19 -55 1z"/>
<path d="M2640 752 c0 -5 -11 -15 -25 -22 -15 -8 -25 -22 -25 -36 0 -12 -11
-29 -26 -39 -20 -13 -23 -19 -14 -25 7 -5 19 -6 27 -3 10 4 13 -12 12 -78 -1
-142 0 -154 21 -177 25 -26 64 -28 108 -6 41 20 42 42 3 36 -37 -5 -43 10 -46
123 -3 94 2 105 41 105 12 0 24 6 27 14 4 11 -4 16 -31 18 -33 3 -37 6 -38 33
-1 17 -2 38 -3 48 -1 16 -31 25 -31 9z"/>
<path d="M3650 743 c1 -12 77 -63 94 -63 31 0 16 20 -34 45 -53 27 -60 29 -60
18z"/>
<path d="M4886 728 c3 -7 19 -24 35 -36 24 -20 32 -22 45 -12 12 11 11 15 -14
30 -42 26 -73 34 -66 18z"/>
<path d="M5285 685 c-105 -15 -153 -32 -160 -56 -10 -32 3 -39 43 -22 104 43
264 58 320 29 44 -23 55 -71 28 -124 -27 -52 -51 -66 -124 -67 -37 -1 -79 2
-94 6 -35 9 -45 -5 -25 -35 14 -20 22 -22 89 -21 92 2 142 24 182 82 23 33 29
53 29 87 -2 108 -98 148 -288 121z"/>
<path d="M7017 680 c-15 -12 -20 -31 -21 -80 -2 -70 -15 -103 -54 -136 -42
-37 0 -62 44 -26 27 23 58 71 51 79 -11 10 14 45 28 39 8 -3 17 -1 19 3 3 5
20 8 38 8 48 -1 68 9 63 32 -2 11 0 34 5 51 11 39 2 44 -84 45 -49 0 -76 -5
-89 -15z m131 -49 c-3 -24 -6 -26 -57 -26 -43 0 -55 3 -57 17 -4 30 40 49 94
39 18 -3 22 -9 20 -30z"/>
<path d="M6321 676 c-14 -16 -6 -23 39 -36 24 -7 30 -5 30 6 0 36 -47 56 -69
30z"/>
<path d="M4102 664 c-29 -8 -64 -16 -78 -18 -31 -6 -54 -24 -54 -41 0 -23 24
-23 79 2 62 29 142 33 166 9 19 -18 37 -66 26 -66 -4 0 -6 -11 -4 -24 4 -19
-5 -35 -39 -69 -46 -46 -77 -57 -154 -57 -50 0 -61 -10 -35 -32 34 -29 144 -7
202 41 84 69 98 204 27 242 -42 22 -84 26 -136 13z"/>
<path d="M1149 666 c-2 -3 -24 -7 -49 -10 -25 -2 -46 -5 -47 -5 -11 -3 1 -20
17 -24 18 -5 20 -14 20 -107 0 -105 13 -151 45 -164 31 -11 68 -6 101 15 l34
21 0 -22 c0 -20 3 -21 43 -15 56 10 87 22 87 35 0 5 -3 9 -7 8 -5 0 -15 2 -23
6 -13 5 -15 28 -15 131 1 82 -2 125 -9 126 -16 2 -58 -1 -81 -6 -11 -2 -23 -4
-27 -4 -14 -2 -8 -21 6 -21 21 0 26 -23 26 -120 0 -60 -4 -91 -12 -97 -22 -13
-44 -13 -63 1 -16 11 -19 29 -19 131 -1 106 -9 139 -27 121z"/>
<path d="M1528 656 c-58 -14 -67 -22 -43 -40 16 -12 19 -28 21 -107 1 -98 -7
-129 -31 -129 -15 0 -22 -19 -7 -21 38 -5 175 -3 179 4 2 4 -9 12 -25 18 -30
10 -30 10 -31 96 -2 104 6 116 65 107 41 -6 43 -5 50 21 15 61 -45 80 -91 28
l-24 -28 -1 33 c0 17 -3 31 -7 31 -5 -1 -29 -6 -55 -13z"/>
<path d="M2324 655 c-83 -36 -122 -144 -84 -235 13 -32 76 -70 115 -70 51 0
136 55 121 79 -4 6 -18 4 -36 -6 -58 -28 -130 14 -130 76 0 25 3 26 58 28 31
1 71 5 88 8 28 5 31 9 28 36 -4 34 -33 78 -51 79 -7 0 -13 4 -13 8 0 13 -64
11 -96 -3z m72 -57 c14 -41 15 -40 -41 -40 -46 0 -47 1 -41 30 8 30 33 54 55
50 8 -2 20 -20 27 -40z"/>
<path d="M2883 655 c-36 -15 -53 -41 -53 -80 0 -41 17 -63 74 -100 71 -45 79
-78 25 -98 -18 -6 -79 46 -79 68 0 7 -7 16 -16 19 -14 5 -15 -1 -11 -41 3 -27
6 -49 6 -49 6 -11 69 -25 98 -22 73 9 112 47 107 106 -3 37 -38 74 -91 97 -43
18 -57 45 -37 73 14 20 17 21 43 8 15 -8 33 -26 39 -41 7 -14 17 -23 22 -20
11 7 4 63 -10 80 -14 17 -79 16 -117 0z"/>
<path d="M4685 640 c-4 -6 0 -19 9 -29 22 -25 21 -28 -21 -42 -42 -14 -107
-51 -140 -81 -18 -17 -20 -24 -11 -44 14 -30 21 -28 50 16 27 39 85 75 138 85
38 7 54 -8 71 -67 11 -41 -23 -62 -86 -54 -50 7 -56 0 -22 -32 38 -36 114 -16
141 36 12 23 12 33 1 65 -7 20 -19 45 -26 54 -13 15 -10 15 26 9 54 -10 84
-31 100 -70 19 -45 41 -62 60 -46 12 10 13 16 1 39 -38 73 -113 118 -193 116
-18 -1 -33 2 -33 6 0 15 -58 50 -65 39z"/>
<path d="M5754 639 c-11 -19 19 -29 74 -24 58 5 75 11 67 26 -9 13 -132 11
-141 -2z"/>
<path d="M6054 629 c-11 -11 -35 -27 -54 -37 -44 -22 -50 -42 -13 -42 31 0
103 52 103 75 0 23 -16 25 -36 4z"/>
<path d="M6093 571 c-7 -10 -37 -31 -67 -45 -31 -15 -56 -31 -56 -37 0 -41
119 12 148 67 18 34 -5 48 -25 15z"/>
<path d="M5765 572 c-3 -3 -5 -11 -5 -19 0 -10 16 -13 67 -10 69 3 95 21 46
31 -32 7 -100 5 -108 -2z"/>
<path d="M6343 563 c-35 -14 -38 -20 -24 -42 11 -18 42 -7 63 23 22 31 6 38
-39 19z"/>
<path d="M6110 489 c-14 -16 -30 -29 -37 -29 -6 0 -13 -5 -15 -11 -2 -5 -11
-11 -20 -13 -10 -1 -21 -5 -24 -9 -4 -4 -19 -7 -33 -7 -36 0 -53 -13 -45 -34
6 -15 14 -17 48 -12 67 11 191 102 179 132 -8 21 -25 16 -53 -17z"/>
<path d="M5757 493 c-12 -11 -7 -100 6 -110 15 -12 98 -9 122 5 18 9 29 71 18
99 -5 14 -133 19 -146 6z m101 -47 c5 -23 -12 -34 -44 -28 -14 2 -24 11 -24
21 0 24 6 28 38 27 18 -1 28 -7 30 -20z"/>
<path d="M6549 416 c-3 -3 -20 -8 -38 -11 -19 -3 -38 -8 -43 -11 -14 -9 12
-34 34 -34 22 0 80 44 71 54 -7 7 -18 8 -24 2z"/>
<path d="M6690 407 c0 -15 51 -47 73 -47 20 0 29 26 14 38 -20 16 -87 22 -87
9z"/>
</g>
</svg>
