<?xml version="1.0" encoding="utf-8"?>
<!-- Generator: Adobe Illustrator 15.0.2, SVG Export Plug-In . SVG Version: 6.00 Build 0)  -->
<!DOCTYPE svg PUBLIC "-//W3C//DTD SVG 1.1//EN" "http://www.w3.org/Graphics/SVG/1.1/DTD/svg11.dtd">
<svg version="1.1" id="レイヤー_1" xmlns="http://www.w3.org/2000/svg" xmlns:xlink="http://www.w3.org/1999/xlink" x="0px"
	 y="0px" width="187px" height="170px" viewBox="0 0 187 170" enable-background="new 0 0 187 170" xml:space="preserve">
<path fill="#398439" d="M14.72,34.857c0.012,6.262-7.633,11.64-4.088,20.636c2.518,6.392,11.724,9.814,11.724,9.814
	s4.36,1.363,2.059-6.409c-2.9-9.794-3.02-17.331-12.146-20.77C4.09,35.047,0,31.182,0,23.872c0-4.568,6.183-10.458,11.384-9.59
	c4.217,0.702-0.813,7.127-2.298,10.938c-1.915,4.903,3.726,6.012,5.637,4.375c0,0-6.273-4.359-3.76-17.491
	c0,0,3.213-16.584,27.408-10.66c0,0,13.153,3.071,10.862,18.245c0,0-6.594,18.537-12.125,18.131c0,0-9.646-2.862-2.628-12.804
	c0,0,16.514-18.037-1.381-16.547C22.573,9.348,20.12,11.612,21.535,20.872c1.382,9.054,3.546,22.355,14.868,35.979
	c0,0,0.568-1.885,1.463-9.063c1.6-12.867,2.761-21.052,14.942-25.289c13.451-4.678,21.316,2.187,21.316,10.082
	c0,7.896-17.584,24.128-24.471,24.75c-5.743,0.52-7.658-1.817-6.196-6.204c1.462-4.387,23.816-14.791,23.524-20.64
	c-0.292-5.846-15.185,0.745-15.185,0.745s-7.968,2.787-7.361,17.992c0.345,8.711-3.817,15.812,5.998,20.175
	c5.801,2.577,13.614-2.024,21.973-18.432c7.892-15.496,16.242-26.594,8.827-30.61c-9.385-5.083-16.356,5.725-20.991,4.361
	c-1.297-0.379-6.078-1.533-5.723-4.361c0.47-3.799,7.109-9.601,13.902-9.542c12.721,0.108,29.438,7.906,21.186,25.088
	c-3.218,7.017-11.972,19.05-9.249,16.836C85.06,48.923,89.96,39.12,100.992,37.8c6.71-0.804,15.271-0.896,16.652,14.748
	c0.77,8.741-3.852,13.034-7.025,17.564c-2.631,3.749-15.694,10.717-18.912,5.746c-3.216-4.972-4.5-9.438,3.066-8.887
	c16.084,1.169,22.724-21.483,7.354-18.414c-12.351,2.466-13.504,9.458-21.283,13.833c-7.049,3.964-16.051,14.058-7.868,12.082
	c13.757-3.32,11.328-1.254,34.333-1.491c0,0,17.883-1.186,20.679,2.543c3.356,4.473,2.961,2.942-25.162,4.659
	c-20.595,1.257-39.134-1.418-42.861,27.488c-0.753,5.818,3.262,37.661,12.112,39.06c11.897,1.875,113.829-5.654,113.717,5.521
	l-169.882,0.395c0,0,0.258-4.518,11.904-4.981c11.01-0.444,16.215-20.115,13.975-43.257c-1.396-14.442-6.987-26.089-15.897-29.286
	c0,0-16.713-5.691-23.358-15.855c-4.506-6.892-0.325-23.587,6.346-25.405C10.295,33.476,14.713,32.349,14.72,34.857"/>
<path fill="#398439" d="M103.838,76.959l0.025,3.408c0,0-2.971-2.042-5.547-0.225c0,0,1.867,1.001,3.235,1.609
	c1.37,0.609,2.835,0.083,2.835,0.083s-0.193,0.247,0.526,1.466c0,0-4.849-0.393-5.759,2.673c-0.909,3.067,0.511,4.117,1.353,5.594
	c0.841,1.477,5.397,3.252,8.853,1.647s4.938-4.78,4.252-7.26c-0.685-2.482-1.772-4.156-3.901-4.723
	c-2.132-0.567-4.214,1.645-4.214,1.645s-0.704-1.853-0.609-2.985c0.098-1.134,0.752-4.08,0.752-4.08L103.838,76.959z"/>
<path fill="#398439" d="M119.68,99.678c0,0,0.984-0.974,1.508-1.23c0,0,0.976,0.328-0.246,2.268
	c-1.221,1.938,0.019,7.537,1.07,9.066c0,0,0.371-1.354,1.047-1.167c0,0-1.83-1.796-0.824-2.587c1.009-0.791,1.716-1.074,1.716-1.074
	s-1.419-0.829-0.267-1.922c1.154-1.088,2.321-0.042,2.321-0.042s-0.905-1.826,0.259-2.175c1.159-0.347,2.797,0.729,2.797,0.729
	s-1.177-1.79,1.314-1.949c2.491-0.16,2.873,1.928,2.873,1.928s1.234-1.845,2.416-0.705s0.458,2.636,0.458,2.636
	s1.128-1.272,1.839-0.159c0.712,1.109-0.152,2.254-0.152,2.254s1.868-0.631,2.113,0.454c0.242,1.082-1.396,2.704-1.396,2.704
	s1.045,0.137,0.856,1.463c-0.188,1.332-1.286,1.482-1.286,1.482s0.609,1.033-0.033,1.774c-0.644,0.738-1.553,0.216-1.553,0.216
	s1.107,0.59,0.178,1.275c-0.929,0.689-1.388,0.752-1.388,0.752s3.792,0.497,5.959,3.364l-1.675,1.348c0,0,5.182,5.804,5.707,7.588
	c0.527,1.79-0.152,1.605-0.152,1.605s-0.503-0.954-1.398-1.39c-0.9-0.434-0.907,0.868-0.907,0.868s-0.729,0.755-0.845-0.065
	c-0.114-0.821,0.316-1.068-0.34-3.118c-0.656-2.052-2.387-3.118-3.332-3.915c-0.951-0.798-1.111,0.062-0.92,0.781
	c0.191,0.716,1.396,3.341,1.396,3.341l-1.097,0.151l3.436,7.998l-1.749,0.801c0,0,2.331,6.098,1.658,7.964
	c-0.67,1.86-1.521,2.444-2.188,2.349c-0.664-0.094-1.717-0.971-1.201-2.626c0.517-1.653,0.91-1.521,0.256-4.224
	c-0.655-2.702-0.719-3.158-0.719-3.158l-2.375,0.328c0,0-0.664-3.445-1.524-3.606c-0.856-0.159-0.211,4.499-0.211,4.499
	l-2.679,0.184c0,0-0.094,4.016,1.035,5.445c1.127,1.426,3.195,2.906,1.859,4.023c-1.335,1.115-1.96,0.645-2.999-0.143
	c-1.041-0.789-1.478-2.592-1.948-4.664c-0.473-2.078-0.582-4.203-0.582-4.203l-2.52,0.627l-0.241-7.784l-0.963-0.241
	c0,0-0.28-8.061-2.483-11.201c-2.203-3.137-3.556-4.16-3.556-4.16l1.914-2.312c0,0-1.519-7.61-1.367-9.215
	c0,0-2.971-1.263-2.506-3.283C116.042,99.623,116.77,97.475,119.68,99.678"/>
<path fill="#398439" d="M72.993,126.848c0.936,3.019,1.868,4.168,3.378,4.529c1.51,0.357,4.384,2.081,11.787-2.372
	c0,0,1.15,2.513,1.867,2.873c0,0-1.435,4.457-0.502,4.457c0.937,0,8.266,0.79,8.266,0.356c0,0,5.818,0.291,5.818-0.287
	c0-0.573-0.07-0.86-2.01-0.788c-1.94,0.069-3.307,0.215-3.236-0.72c0.074-0.936,1.798-3.305,0.938-5.031
	c-0.863-1.727-0.793-3.088-0.215-3.881c0.572-0.789,4.165-4.094,4.309-6.036c0,0,2.807,1.005,2.946,1.797
	c0.146,0.792,0.433,1.728-0.287,1.728c0,0,0.146,0.93,0.933,0.787c0.793-0.144,2.302-0.646,2.088-2.156
	c-0.215-1.508-0.79-1.797-1.725-2.369c-0.937-0.574-2.658-1.079-2.371-1.58c0.285-0.508,0.357-0.936,1.436-1.799
	c0,0,1.008,0.215,1.294-0.434c0.286-0.645,1.294-2.082,1.58-3.447c0.29-1.367,0.218-1.797,1.151-2.228
	c0.935-0.435,3.379-0.72,3.16-1.224c-0.215-0.504-0.285-1.436-1.146-1.51c-0.862-0.07-2.301,0.145-3.094,1.006
	c-0.787,0.863-1.075,3.738-2.441,3.234c-1.364-0.503-1.365-1.727-2.227-2.66c-0.863-0.933-1.652-1.146-2.373-1.221
	c-0.287-0.143,0.359-1.007,0.359-1.007s1.797-2.011,0.791-3.019c0,0-0.145-0.285-1.365-0.215c-0.935-0.287-0.863-0.793-1.295-1.004
	c-0.43-0.217-1.149,0.283-1.149,0.283s0.575-1.292-0.216-2.225c0,0-0.433,2.225-1.364,2.225c-0.935,0-0.72-0.357-1.366-0.86
	c-0.645-0.503-1.223-0.718-1.223-0.718s-0.287,3.446,0.218,4.382c0.504,0.937,1.867,3.448,1.649,4.816
	c-0.213,1.362-0.07,3.163-1.146,3.809c-1.078,0.646-8.051,9.056-7.834,10.278c0,0-2.517,4.021-5.966,4.598
	c-3.451,0.574-5.318,0.862-6.47-1.582c-1.148-2.439-1.941-3.305-2.3-3.377C73.283,124.188,72.06,123.831,72.993,126.848
	 M93.118,134.751c0.143-0.789,0.575-2.084,1.366-2.298c0,0,1.582,0.289,1.291,2.372c0,0,0.146,0.286-1.651,0.358
	C93.044,135.258,92.974,135.544,93.118,134.751"/>
<path fill="#398439" d="M118.796,129.555c0,0-0.161-1.332-0.933-1.322c-0.773,0.014-1.555-0.324-1.555-0.324l-0.273,0.355
	c0,0-0.27,0.704-1.254,0.789c-0.98,0.088-1.264,0.094-1.264,0.094s-0.363-0.77-1.144-0.897c-0.771-0.128-2.158,1.09-2.431,1.588
	c-0.274,0.492-1.102,1.772-1.87,1.784c-0.772,0.015-0.339,0.921-0.339,0.921l0.162,1.331c0,0-0.037,2.04,1.285,1.175
	c1.32-0.864,1.194-0.017,1.244-1.282c0.049-1.268,0.076,0.418,0.076,0.418s0.084,0.844-0.826,1.068
	c-0.908,0.227-0.619,0.854-4.482,0.915c-3.866,0.062-7.369-0.093-11.532-0.804c-4.155-0.704-5.253,1.066-5.673,1.145
	c-0.423,0.078-2.422,2.641-3.826,2.594c-1.409-0.047-3.812-1.063-5.564-0.543c-1.748,0.52-2.444,0.881-2.444,0.881
	s1.229,2.23,3.906,2.608c1.268,0.19,2.183,0.248,4.064-0.837c1.881-1.087,2.017-1.511,2.017-1.511s0.568,4.913,1.588,7.216
	c1.02,2.307,1.373,2.371,2.917,2.203c0.629-0.291,0.9-0.786,0.193-1.059c-0.708-0.269-1.415-0.608-1.415-0.608
	s2.04,0.108,1.891-0.451c-0.149-0.562-1.064-0.546-1.142-1.035c-0.079-0.491,0.472-1.274,1.731-1.646
	c1.256-0.373,0.539-1.416,2.581-1.237c2.043,0.181,5.845,1.315,7.963,1.843c2.115,0.53,4.023,1.201,6.402,0.319
	c0,0,0.256,3.09,0.612,3.437c0.36,0.344,1.838,0.461,2.465,0.102c0.628-0.361,0.755-1.137,0.261-1.268
	c-0.494-0.136-1.269,1.662-1.269,1.662l-0.012-0.636c0,0,2.256,0.245,2.108-0.174c-0.148-0.419-0.929-2.609-1.004-3.031
	c-0.074-0.423-0.094-1.334,0.604-1.698c0.698-0.361,2.862-1.377,3.319-3.633c0.453-2.26,0.857-3.533,1.345-3.541
	c0.495-0.006,1.021,2.167,2.483,1.367c1.465-0.795,1.827-0.166,1.524-1.43c-0.304-1.26-1.565-1.309-1.45-2.721
	c0.12-1.406,0.473-1.201,0.242-2.39C119.859,130.096,118.796,129.555,118.796,129.555"/>
<path fill="#398439" d="M19.568,158.152c3.05,0,5.564,2.308,5.564,5.711c0,3.718-2.612,5.972-5.782,5.972
	c-3.375,0-5.718-2.528-5.718-5.829c0-2.961,2.056-5.854,5.918-5.854H19.568z M19.23,158.857c-1.686,0-3.019,1.84-3.019,4.817
	c0,2.942,1.282,5.435,3.442,5.435c1.599,0,2.897-1.602,2.897-4.764c0-3.424-1.365-5.488-3.302-5.488H19.23L19.23,158.857z"/>
<path fill="#398439" d="M34.986,169.162c-0.489,0.074-0.963,0.154-1.518,0.277c-0.524,0.102-1.063,0.224-1.569,0.345l-0.134-0.121
	v-1.031c-0.303,0.239-0.471,0.41-0.845,0.634c-0.487,0.327-0.943,0.52-1.466,0.52c-1.417,0-2.208-0.934-2.208-2.445v-3.561
	c0-0.791-0.102-0.879-0.54-0.997l-0.388-0.119v-0.5c0.422-0.017,0.945-0.067,1.5-0.122c0.572-0.048,1.163-0.118,1.619-0.188
	c-0.035,0.724-0.05,1.602-0.05,2.596v2.496c0,1.119,0.573,1.513,1.163,1.513c0.455,0,0.826-0.103,1.213-0.483v-4.179
	c0-0.789-0.103-0.911-0.539-1.014l-0.54-0.119v-0.5c0.489-0.017,1.095-0.067,1.688-0.122c0.588-0.048,1.146-0.118,1.532-0.188v5.59
	c0,0.912,0.1,1.063,0.708,1.138l0.372,0.034v0.547H34.986z"/>
<path fill="#398439" d="M39.813,163.572c0.608-1.066,1.265-1.809,1.888-1.809c0.675,0,1.13,0.481,1.13,1.068
	c0,0.621-0.372,1.098-0.824,1.275c-0.24,0.082-0.406,0.029-0.526-0.074c-0.286-0.235-0.486-0.357-0.775-0.357
	c-0.32,0-0.659,0.223-0.942,0.896v3.195c0,1.068,0.1,1.137,1.396,1.258v0.553h-4.618v-0.553c0.911-0.102,1.078-0.188,1.078-1.258
	v-3.744c0-0.881-0.134-0.949-0.908-1.141v-0.48c1.01-0.139,2.004-0.324,3.052-0.652v1.822H39.813z"/>
<path fill="#398439" d="M50.313,158.395c1.333,0,2.293,0.187,2.953,0.672c0.791,0.551,1.248,1.412,1.248,2.529
	c0,2.305-1.671,3.354-3.441,3.578c-0.252,0.033-0.523,0.033-0.709,0.033l-1.147-0.275v2.358c0,1.461,0.153,1.581,1.604,1.703v0.585
	h-5.244v-0.585c1.264-0.122,1.416-0.242,1.416-1.703v-6.593c0-1.461-0.152-1.562-1.315-1.7v-0.603H50.313L50.313,158.395z
	 M49.215,164.242c0.205,0.086,0.558,0.173,0.914,0.173c0.623,0,1.971-0.449,1.971-2.767c0-1.946-1.078-2.584-2.107-2.584
	c-0.321,0-0.522,0.086-0.625,0.172c-0.1,0.104-0.153,0.275-0.153,0.535V164.242z"/>
<path fill="#398439" d="M62.089,167.872c-1.031,1.563-2.347,1.912-3.036,1.912c-2.245,0-3.489-1.704-3.489-3.683
	c0-1.307,0.538-2.41,1.245-3.117c0.742-0.756,1.669-1.219,2.582-1.219h0.018c1.552,0,2.746,1.36,2.73,2.771
	c0,0.344-0.103,0.564-0.489,0.617c-0.304,0.033-2.36,0.205-4.012,0.273c0.085,1.84,1.077,2.771,2.276,2.771
	c0.656,0,1.28-0.229,1.871-0.742L62.089,167.872z M59.036,162.454c-0.625,0-1.214,0.792-1.313,2.167
	c0.689-0.018,1.313-0.034,2.003-0.049c0.253-0.021,0.338-0.055,0.355-0.346c0-0.879-0.369-1.772-1.027-1.772H59.036L59.036,162.454z
	"/>
<path fill="#398439" d="M67.454,169.593c-0.305,0.14-0.577,0.19-0.691,0.19c-1.298,0-2.056-0.621-2.056-2.168v-4.816h-1.063
	l-0.085-0.209l0.472-0.617h0.676v-1.254l1.905-1.343l0.236,0.104v2.492H68.5c0.203,0.188,0.167,0.688-0.103,0.825h-1.549v4.249
	c0,1.344,0.607,1.495,0.959,1.495c0.288,0,0.56-0.065,0.844-0.205l0.168,0.604L67.454,169.593z"/>
<path fill="#398439" d="M75.027,164.191c-0.456-1.049-0.994-1.754-1.788-1.754c-0.437,0-0.859,0.377-0.859,0.93
	c0,0.533,0.387,0.928,1.249,1.324c1.365,0.603,2.274,1.205,2.274,2.545c0,1.707-1.6,2.547-3.019,2.547
	c-0.892,0-1.786-0.324-2.124-0.585c-0.098-0.273-0.25-1.48-0.27-2.308l0.506-0.049c0.373,1.083,1.147,2.268,2.177,2.268
	c0.555,0,0.925-0.41,0.925-0.926c0-0.498-0.236-0.931-1.281-1.431c-0.776-0.394-2.14-1.065-2.14-2.545
	c0-1.342,1.061-2.444,2.831-2.444c0.777-0.016,1.232,0.139,1.619,0.312c0.169,0.394,0.372,1.616,0.407,1.958L75.027,164.191z"/>
<path fill="#398439" d="M84.296,168.602c-0.331-0.392-0.512-0.894-0.54-1.513c-0.031-1.231,0.504-2.167,1.601-2.815
	c0.031-0.031,0.065-0.053,0.105-0.061v-0.044c-0.02-0.741-0.131-1.45-0.33-2.129c-0.198-0.608-0.451-1.233-0.749-1.871
	c-0.148-0.26-0.094-0.476,0.167-0.646c0.328-0.199,0.618-0.215,0.867-0.045c0.251,0.147,0.36,0.416,0.328,0.797
	c0.171,0.969,0.358,2.123,0.557,3.471c0.699-0.389,1.398-0.739,2.097-1.049c1.088-0.469,1.831-0.855,2.231-1.165
	c0.23-0.261,0.383-0.382,0.464-0.361c0.189,0.039,0.31,0.222,0.36,0.539c0.079,0.321,0.079,0.565,0,0.733
	c-0.071,0.172-0.205,0.279-0.403,0.328c-0.591,0.15-1.269,0.379-2.038,0.676c-1.159,0.451-2.241,0.974-3.251,1.574
	c-0.787,0.467-1.163,1.162-1.124,2.08c0.012,0.32,0.145,0.625,0.406,0.914c0.248,0.25,0.723,0.399,1.422,0.448
	c0.958,0.062,1.938,0.027,2.934-0.104c0.86-0.131,1.577-0.26,2.157-0.389c0.231-0.06,0.413-0.127,0.539-0.195
	c0.11-0.084,0.201-0.094,0.271-0.045c0.07,0.06,0.096,0.211,0.076,0.451c-0.029,0.236-0.164,0.531-0.405,0.881
	c-0.18,0.283-0.953,0.447-2.319,0.498c-1.419,0.037-2.618-0.006-3.596-0.14C85.282,169.284,84.674,169.008,84.296,168.602
	 M91.198,159.93c0.041-0.121,0.13-0.171,0.271-0.152c0.181,0.031,0.501,0.152,0.958,0.361c1.039,0.508,1.567,0.818,1.589,0.93
	c0.037,0.158-0.077,0.306-0.345,0.447c-0.301,0.16-0.6,0.07-0.9-0.271c-0.11-0.138-0.263-0.287-0.462-0.447
	c-0.231-0.198-0.423-0.335-0.572-0.401c-0.138-0.092-0.256-0.146-0.343-0.168C91.225,160.169,91.158,160.07,91.198,159.93
	 M91.858,158.744c0.028-0.129,0.116-0.193,0.254-0.193c0.172,0.014,0.499,0.088,0.987,0.24c1.061,0.369,1.608,0.607,1.651,0.716
	c0.068,0.152-0.029,0.312-0.288,0.482c-0.257,0.198-0.562,0.145-0.912-0.166c-0.13-0.118-0.297-0.245-0.507-0.374
	c-0.233-0.15-0.432-0.26-0.6-0.33c-0.151-0.059-0.27-0.096-0.358-0.104C91.922,158.977,91.848,158.889,91.858,158.744"/>
<path fill="#398439" d="M101.846,162.04c0.762-0.271,1.475-0.392,2.143-0.376c0.898,0.012,1.652,0.266,2.261,0.766
	c0.591,0.471,0.876,1.139,0.856,2.006c0.008,1.189-0.31,2.192-0.961,2.996c-0.566,0.739-1.28,1.287-2.142,1.65
	c-0.787,0.318-1.581,0.514-2.381,0.598c-0.558,0.027-0.938-0.005-1.14-0.104c-0.168-0.104-0.323-0.247-0.463-0.437
	c-0.14-0.18-0.188-0.35-0.15-0.508c0.053-0.148,0.471-0.182,1.259-0.091c0.718,0.051,1.444-0.049,2.17-0.3
	c0.82-0.29,1.496-0.758,2.022-1.408c0.502-0.607,0.748-1.402,0.748-2.382c0.012-0.535-0.174-0.962-0.553-1.271
	c-0.389-0.351-0.928-0.531-1.617-0.541c-0.616-0.021-1.199,0.059-1.737,0.236c-0.61,0.202-1.147,0.445-1.616,0.738
	c-0.223,0.137-0.46,0.248-0.72,0.326c-0.271,0.052-0.462-0.033-0.586-0.269c-0.097-0.229-0.054-0.471,0.138-0.72
	c0.221-0.289,0.514-0.455,0.885-0.492C100.641,162.411,101.169,162.27,101.846,162.04 M101.053,159.061
	c-0.01-0.201,0.096-0.318,0.318-0.362c0.259-0.05,0.768-0.05,1.525,0c2.016,0.221,3.074,0.417,3.172,0.588
	c0.132,0.2,0.052,0.457-0.239,0.776c-0.317,0.371-0.772,0.396-1.36,0.078c-0.279-0.145-0.638-0.283-1.078-0.42
	c-0.502-0.173-0.908-0.273-1.229-0.314c-0.278-0.029-0.504-0.037-0.676-0.016C101.219,159.391,101.072,159.279,101.053,159.061"/>
<path fill="#398439" d="M119.82,168.506c-0.559,0.442-1.139,0.674-1.737,0.692c-0.409,0.02-0.729-0.036-0.96-0.161
	c-0.239-0.163-0.48-0.432-0.721-0.797c-0.172-0.293-0.233-0.473-0.193-0.54c0.05-0.081,0.201-0.062,0.45,0.063
	c0.44,0.166,0.918,0.245,1.438,0.235c0.478-0.028,0.856-0.155,1.135-0.374c0.3-0.229,0.442-0.498,0.422-0.807
	c-0.01-0.287-0.27-0.829-0.779-1.647c-0.121-0.19-0.238-0.366-0.359-0.522c-0.358,0.057-0.719,0.142-1.076,0.25
	c-1.078,0.311-1.959,0.791-2.637,1.438c-0.479,0.462-0.759,0.879-0.839,1.26c-0.062,0.262-0.217,0.385-0.479,0.375
	c-0.188-0.022-0.368-0.259-0.541-0.719c-0.117-0.38-0.094-0.65,0.076-0.812c1.547-1.164,2.854-1.926,3.91-2.271
	c0.326-0.135,0.662-0.231,1.002-0.305c-0.248-0.304-0.504-0.585-0.763-0.837c-0.211-0.229-0.251-0.396-0.12-0.508
	c0.172-0.141,0.365-0.172,0.583-0.092c0.351,0.149,0.638,0.401,0.853,0.752c0.133,0.178,0.252,0.352,0.359,0.521
	c0.561-0.108,1.092-0.14,1.586-0.091c0.762,0.062,1.438,0.3,2.024,0.703c0.63,0.422,1.231,1.052,1.812,1.89
	c0.2,0.21,0.305,0.479,0.318,0.792c0.037,0.291-0.059,0.503-0.288,0.643c-0.171,0.104-0.354,0.104-0.554,0
	c-0.21-0.097-0.376-0.261-0.495-0.49c-0.329-0.969-0.744-1.637-1.244-2.006c-0.456-0.373-1.013-0.574-1.662-0.617
	c-0.298-0.039-0.598-0.032-0.897,0.019c0.108,0.118,0.205,0.238,0.285,0.356c0.539,0.66,0.813,1.285,0.823,1.875
	C120.592,167.51,120.35,168.092,119.82,168.506 M118.695,159.507c0.619,0.181,1.027,0.373,1.228,0.587
	c0.263,0.197,0.392,0.368,0.392,0.51c0,0.147-0.121,0.299-0.362,0.447c-0.247,0.1-0.49,0.204-0.731,0.313
	c-0.311,0.2-0.52,0.252-0.628,0.151c-0.091-0.103-0.026-0.229,0.193-0.388c0.108-0.094,0.205-0.218,0.284-0.378
	c-0.01-0.1-0.086-0.186-0.227-0.254c-0.154-0.079-0.322-0.124-0.492-0.133c-0.199-0.031-0.459-0.047-0.778-0.047
	c-0.269-0.012-0.509-0.026-0.72-0.043c-0.309-0.012-0.556-0.069-0.733-0.168c-0.118-0.088-0.177-0.213-0.165-0.375
	c0.012-0.168,0.096-0.306,0.255-0.418c0.201-0.141,0.429-0.209,0.688-0.209C117.277,159.146,117.877,159.279,118.695,159.507
	 M121.934,160.169c0.034-0.12,0.129-0.171,0.268-0.149c0.18,0.021,0.496,0.145,0.956,0.375c0.851,0.429,1.278,0.696,1.291,0.805
	c0.04,0.154-0.075,0.301-0.345,0.438c-0.312,0.149-0.607,0.059-0.898-0.281c-0.09-0.119-0.21-0.248-0.359-0.377
	c-0.179-0.172-0.33-0.291-0.449-0.359c-0.108-0.082-0.205-0.125-0.285-0.139C121.948,160.413,121.891,160.307,121.934,160.169
	 M122.646,158.791c0.031-0.131,0.117-0.186,0.26-0.163c0.168,0.015,0.498,0.113,0.986,0.28c0.896,0.371,1.352,0.609,1.362,0.719
	c0.06,0.161-0.042,0.316-0.301,0.467c-0.289,0.182-0.595,0.108-0.913-0.214c-0.102-0.106-0.23-0.228-0.402-0.354
	c-0.201-0.15-0.361-0.262-0.482-0.33c-0.12-0.06-0.219-0.096-0.299-0.104C122.695,159.029,122.627,158.932,122.646,158.791"/>
<path fill="#398439" d="M131.188,161.484c1.086-0.196,2.145-0.307,3.172-0.328c1.877-0.07,3.197,0.236,3.957,0.914
	c0.699,0.609,1.052,1.316,1.065,2.127c0,1.158-0.418,2.186-1.249,3.084c-0.806,0.89-1.878,1.334-3.216,1.334
	c-0.759,0.009-1.491,0.023-2.203,0.042c-0.46-0.026-0.76-0.156-0.897-0.388c-0.123-0.24-0.205-0.459-0.256-0.66
	c-0.021-0.18-0.021-0.332,0-0.463c0.03-0.139,0.291-0.121,0.777,0.061c0.832,0.221,1.688,0.309,2.579,0.27
	c1.088,0,1.937-0.332,2.545-1.002c0.548-0.608,0.823-1.34,0.823-2.188c-0.032-0.629-0.279-1.144-0.75-1.542
	c-0.51-0.439-1.551-0.621-3.129-0.539c-1.258,0.04-2.256,0.148-2.994,0.328c-0.739,0.181-1.421,0.435-2.037,0.766
	c-0.352,0.169-0.641,0.276-0.869,0.33c-0.24,0.039-0.404-0.068-0.495-0.33c-0.079-0.271-0.009-0.547,0.21-0.826
	c0.18-0.218,0.438-0.377,0.778-0.478C129.538,161.812,130.266,161.648,131.188,161.484"/>
<path fill="#398439" d="M143.395,161.363c-0.383,0.033-0.61-0.049-0.69-0.235c-0.062-0.183-0.004-0.386,0.166-0.614
	c0.288-0.281,0.606-0.38,0.96-0.303c0.236,0.044,0.496,0.073,0.775,0.092c0.301-0.013,0.604-0.005,0.916,0.016
	c0.008-0.352-0.071-0.672-0.242-0.957c-0.219-0.442-0.278-0.737-0.18-0.896c0.144-0.203,0.426-0.23,0.854-0.095
	c0.39,0.101,0.555,0.42,0.495,0.944c-0.04,0.3-0.137,0.627-0.286,0.988c-0.011,0-0.015,0.01-0.015,0.03
	c0.379-0.021,0.77-0.021,1.168,0c0.301-0.01,0.521,0.045,0.656,0.164c0.164,0.132,0.188,0.288,0.078,0.466
	c-0.132,0.188-0.386,0.279-0.764,0.252c-0.969,0-1.807,0.02-2.518,0.043C144.15,161.282,143.689,161.314,143.395,161.363
	 M143.708,166.98c0.01-0.398,0.067-0.67,0.181-0.807c0.129-0.141,0.272-0.201,0.434-0.181c0.222,0.008,0.41,0.024,0.57,0.044
	c0.27-0.028,0.795-0.049,1.586-0.057c0.439-0.024,0.76,0.027,0.959,0.148c0.278,0.148,0.363,0.398,0.256,0.745
	c-0.043,0.119-0.055,0.28-0.045,0.479v0.405c0.011,0.238-0.047,0.489-0.168,0.744c-0.088,0.204-0.233,0.356-0.433,0.47
	c-0.237,0.119-0.51,0.16-0.81,0.119c-0.278-0.043-0.577-0.051-0.897-0.031c-0.231,0.012-0.397,0.026-0.508,0.045
	c-0.343,0.09-0.599,0.086-0.767-0.014c-0.18-0.119-0.285-0.515-0.313-1.184C143.741,167.521,143.729,167.213,143.708,166.98
	 M146.283,162.266c0.548-0.02,0.904,0.039,1.064,0.178c0.1,0.113,0.12,0.25,0.06,0.42c-0.041,0.16-0.249,0.238-0.632,0.238
	c-0.455-0.006-0.865-0.002-1.225,0.014c-0.322,0-0.599,0.027-0.826,0.08c-0.47,0.091-0.772,0.018-0.912-0.211
	c-0.078-0.189-0.041-0.364,0.121-0.522c0.188-0.171,0.557-0.249,1.106-0.228C145.49,162.232,145.902,162.246,146.283,162.266
	 M146.343,164.064c0.548-0.025,0.903,0.037,1.064,0.177c0.103,0.108,0.118,0.25,0.062,0.419c-0.044,0.16-0.254,0.238-0.631,0.238
	c-0.451-0.008-0.85-0.004-1.199,0.017c-0.298,0-0.562,0.026-0.793,0.076c-0.47,0.088-0.771,0.018-0.91-0.214
	c-0.082-0.188-0.043-0.362,0.117-0.522c0.189-0.172,0.559-0.237,1.108-0.228C145.58,164.027,145.975,164.039,146.343,164.064
	 M146.193,168.029c0.099-0.008,0.168-0.021,0.211-0.029c0.1-0.059,0.138-0.273,0.117-0.645c0-0.268-0.026-0.424-0.09-0.463
	c-0.07-0.07-0.369-0.097-0.896-0.074c-0.391,0.011-0.623,0.043-0.702,0.103c-0.062,0.04-0.092,0.235-0.092,0.586
	c0.01,0.3,0.032,0.479,0.073,0.54c0.047,0.029,0.154,0.039,0.315,0.029C145.559,168.047,145.915,168.029,146.193,168.029
	 M150.266,160.887c0.17-0.148,0.311-0.32,0.424-0.509c0.127-0.198,0.209-0.382,0.252-0.541c0.061-0.267,0.082-0.483,0.061-0.644
	c0-0.149,0.041-0.264,0.118-0.344c0.121-0.102,0.276-0.108,0.467-0.029c0.22,0.098,0.363,0.271,0.435,0.509
	c0.067,0.28,0.029,0.524-0.121,0.731c-0.049,0.062-0.104,0.145-0.164,0.258c0.08,0.033,0.162,0.074,0.24,0.134
	c0.478,0.259,1.022,0.551,1.633,0.868c1.279,0.58,2.183,1.006,2.709,1.271c0.24,0.121,0.35,0.221,0.328,0.303
	c0,0.14-0.127,0.285-0.388,0.435c-0.358,0.188-0.729,0.294-1.108,0.313c-0.356,0-0.743-0.262-1.151-0.781
	c-0.272-0.389-0.655-0.738-1.153-1.047c-0.422-0.307-0.764-0.465-1.035-0.475c-0.236-0.039-0.442-0.076-0.612-0.126
	c-0.081,0.087-0.173,0.194-0.283,0.315c-0.298,0.298-0.601,0.555-0.897,0.765c-0.352,0.267-0.723,0.494-1.109,0.671
	c-0.264,0.124-0.493,0.133-0.703,0.034c-0.221-0.151-0.329-0.312-0.329-0.481c0.007-0.158,0.095-0.271,0.253-0.346
	c0.518-0.229,0.985-0.475,1.393-0.73C149.829,161.244,150.075,161.059,150.266,160.887 M153.682,165.469
	c0.25,0.092,0.398,0.235,0.448,0.436c0.071,0.26,0.004,0.461-0.192,0.601c-0.108,0.062-0.256,0.187-0.434,0.39
	c-0.641,0.658-1.359,1.215-2.158,1.66c-0.646,0.381-1.224,0.615-1.722,0.701c-0.449,0.062-0.804-0.002-1.063-0.191
	c-0.283-0.258-0.386-0.482-0.312-0.672c0.079-0.201,0.337-0.306,0.779-0.314c0.387-0.029,0.869-0.141,1.449-0.328
	c0.648-0.241,1.203-0.533,1.664-0.872c0.588-0.405,0.963-0.782,1.121-1.121C153.371,165.516,153.512,165.418,153.682,165.469
	 M151.975,162.295c0.14,0.051,0.229,0.18,0.271,0.391c0.048,0.289-0.102,0.594-0.449,0.912c-0.182,0.201-0.404,0.4-0.677,0.601
	c-0.287,0.209-0.554,0.354-0.791,0.433c-0.511,0.172-0.87,0.206-1.081,0.105c-0.209-0.117-0.287-0.272-0.239-0.463
	c0.052-0.193,0.275-0.354,0.677-0.48c0.41-0.132,0.812-0.32,1.213-0.57c0.341-0.217,0.572-0.443,0.705-0.671
	C151.721,162.329,151.846,162.246,151.975,162.295 M152.889,163.792c0.131,0.052,0.215,0.177,0.254,0.394
	c0.027,0.277-0.131,0.574-0.479,0.895c-0.262,0.304-0.594,0.583-1.003,0.857c-0.42,0.276-0.806,0.473-1.152,0.582
	c-0.512,0.148-0.87,0.172-1.081,0.072c-0.219-0.117-0.291-0.271-0.221-0.461c0.059-0.182,0.287-0.339,0.688-0.469
	c0.541-0.167,1.082-0.411,1.631-0.73c0.459-0.289,0.783-0.589,0.975-0.904C152.617,163.82,152.747,163.741,152.889,163.792"/>
<path fill="#398439" d="M159.91,164.195c0.081,0.132,0.02,0.297-0.193,0.496c-0.3,0.27-0.533,0.511-0.703,0.719
	c-0.259,0.27-0.474,0.413-0.644,0.436c-0.181,0.021-0.354-0.14-0.526-0.482c-0.088-0.197-0.113-0.36-0.074-0.49
	c0.051-0.152,0.222-0.273,0.512-0.377c0.359-0.069,0.724-0.174,1.095-0.311C159.661,164.073,159.84,164.077,159.91,164.195
	 M164.988,158.223c0.25,0.026,0.429,0.113,0.539,0.252c0.051,0.092,0.062,0.233,0.031,0.433c-0.02,0.063-0.041,0.137-0.062,0.213
	c-0.009,0.062-0.022,0.13-0.045,0.212c0.56-0.032,1.164-0.053,1.813-0.062c1.258-0.052,1.967,0,2.127,0.15
	c0.207,0.168,0.225,0.383,0.045,0.643c-0.108,0.142-0.355,0.192-0.733,0.148c-0.312-0.05-0.896-0.062-1.755-0.042
	c-0.948,0.009-2.604,0.067-4.971,0.183c-0.17,0-0.285,0.035-0.345,0.114c-0.051,0.082-0.073,0.237-0.073,0.466
	c0,1.389-0.056,2.545-0.168,3.473c0.16-0.076,0.342-0.125,0.541-0.149c0.33-0.065,0.715-0.212,1.152-0.433
	c-0.201-0.071-0.43-0.125-0.689-0.164c-0.26-0.02-0.434-0.094-0.523-0.223c-0.057-0.121-0.055-0.248,0.02-0.377
	c0.059-0.109,0.152-0.199,0.281-0.27c0.169-0.092,0.305-0.107,0.405-0.059c0.157,0.037,0.261,0.1,0.301,0.18
	c0.198,0.168,0.437,0.338,0.718,0.506c0.026,0.021,0.049,0.048,0.06,0.077c0.208-0.151,0.379-0.28,0.511-0.392
	c0.327-0.379,0.543-0.692,0.641-0.94c0.062-0.151,0.104-0.291,0.123-0.419c-0.82,0.035-1.449,0.128-1.889,0.268
	c-0.529,0.141-0.863,0.141-1.005,0c-0.11-0.182-0.112-0.367-0.011-0.568c0.146-0.222,0.377-0.369,0.688-0.446
	c0.359-0.062,0.696-0.08,1.02-0.048c0.127,0.021,0.332,0.029,0.611,0.029c0.2-0.02,0.411-0.02,0.631,0
	c0-0.22,0.033-0.355,0.104-0.404c0.152-0.092,0.318-0.123,0.511-0.105c0.146,0.021,0.265,0.092,0.345,0.211
	c0.051,0.08,0.062,0.18,0.045,0.301c0.879-0.011,1.787-0.015,2.727-0.015c0.398,0,0.572,0.072,0.521,0.226
	c-0.027,0.151-0.192,0.328-0.492,0.537c-0.18,0.102-0.444,0.125-0.795,0.075c-0.562-0.079-1.267-0.104-2.127-0.075
	c-0.01,0.049-0.018,0.104-0.018,0.164c-0.027,0.15-0.064,0.295-0.115,0.438c0.115,0.02,0.244,0.057,0.373,0.115
	c0.639,0.264,1.143,0.496,1.514,0.707c0.479-0.481,0.768-0.769,0.869-0.871c0.207-0.156,0.393-0.125,0.553,0.104
	c0.179,0.232,0.238,0.435,0.179,0.617c-0.062,0.181-0.224,0.292-0.492,0.342c-0.1,0.013-0.268,0.048-0.495,0.104
	c-0.021-0.008-0.023-0.004-0.014,0.018c0.398,0.169,0.877,0.398,1.436,0.688c0.709,0.32,1.461,0.615,2.25,0.885
	c0.172,0.029,0.18,0.115,0.028,0.256c-0.521,0.357-0.927,0.555-1.214,0.583c-0.271,0.021-0.55-0.082-0.841-0.299
	c-0.327-0.291-0.621-0.529-0.882-0.72c0,0.09-0.041,0.221-0.12,0.393c-0.089,0.146-0.189,0.352-0.3,0.611
	c-0.107,0.32-0.205,0.608-0.284,0.871c-0.099,0.315-0.28,0.531-0.539,0.642c-0.179,0.09-0.412,0.11-0.701,0.06
	c-0.213-0.06-0.451-0.095-0.722-0.106c-0.059,0.194-0.069,0.417-0.029,0.676c0.04,0.44,0.034,0.806-0.018,1.095
	c-0.047,0.43-0.201,0.641-0.463,0.631c-0.271-0.013-0.427-0.188-0.479-0.526c-0.039-0.317-0.034-0.693,0.017-1.122
	c0.037-0.301,0.019-0.544-0.062-0.732l-0.013-0.02c-0.432,0.013-0.744,0.062-0.942,0.15c-0.213,0.101-0.386,0.099-0.526-0.014
	c-0.14-0.14-0.27-0.386-0.392-0.73c-0.259-0.971-0.435-1.532-0.521-1.695l-0.019-0.029c-0.407,0.159-0.774,0.285-1.091,0.376
	c-0.192,0.019-0.36,0.009-0.512-0.03c-0.109,0.469-0.256,0.891-0.433,1.276c-0.26,0.522-0.612,1.022-1.051,1.495
	c-0.3,0.316-0.578,0.561-0.838,0.729c-0.2,0.123-0.399,0.18-0.601,0.168c-0.16-0.023-0.295-0.112-0.404-0.271
	c-0.148-0.267-0.069-0.532,0.24-0.793c1.057-0.909,1.701-1.584,1.933-2.021c0.247-0.472,0.407-1.041,0.479-1.709
	c0.049-0.569,0.075-1.459,0.075-2.668c-0.022-0.314-0.062-0.69-0.121-1.121c-0.04-0.27-0.02-0.484,0.06-0.643
	c0.1-0.193,0.25-0.32,0.449-0.391c0.301-0.12,0.597-0.172,0.881-0.15c0.613,0.049,1.453,0.076,2.519,0.076v-0.02
	c-0.008-0.099-0.028-0.188-0.058-0.268c-0.071-0.29-0.055-0.506,0.043-0.643C164.545,158.249,164.738,158.189,164.988,158.223
	 M159.643,161.98c0.209,0.24,0.269,0.414,0.18,0.522c-0.077,0.11-0.264,0.129-0.555,0.06c-0.219-0.049-0.447-0.096-0.689-0.133
	c-0.337-0.07-0.553-0.191-0.645-0.359c-0.06-0.16-0.037-0.319,0.062-0.481c0.082-0.133,0.214-0.237,0.404-0.312
	c0.22-0.1,0.398-0.111,0.539-0.032c0.188,0.069,0.31,0.161,0.357,0.271C159.389,161.654,159.5,161.812,159.643,161.98
	 M163.773,168.914c-0.237,0.182-0.53,0.354-0.881,0.525c-0.451,0.168-0.775,0.189-0.974,0.059c-0.16-0.12-0.252-0.305-0.271-0.555
	c-0.03-0.278,0.168-0.442,0.599-0.494c0.319-0.029,0.623-0.069,0.913-0.12c0.238-0.037,0.504-0.112,0.795-0.222
	c0.229-0.121,0.378-0.129,0.447-0.018c0.07,0.098,0.033,0.223-0.103,0.374C164.189,168.584,164.014,168.734,163.773,168.914
	 M165.872,165.352c1.049-0.021,1.683-0.035,1.903-0.047c0.029-0.08,0.05-0.146,0.062-0.193c0.026-0.104,0-0.184-0.091-0.254
	c-0.094-0.053-0.279-0.076-0.566-0.076c-1.421-0.012-2.408,0.023-2.968,0.105c-0.132,0-0.221,0.028-0.271,0.09
	c-0.07,0.06-0.102,0.145-0.09,0.254v0.062c0.028-0.019,0.053-0.019,0.071,0C164.256,165.339,164.904,165.355,165.872,165.352
	 M164.002,166.021c0.049,0.121,0.094,0.258,0.135,0.406c0.03,0.051,0.079,0.1,0.151,0.15c0.067,0.038,0.153,0.055,0.269,0.049
	c0.908-0.087,1.694-0.115,2.364-0.098c0.199,0,0.334-0.008,0.402-0.026c0.085-0.049,0.127-0.094,0.139-0.134
	c0.046-0.143,0.083-0.262,0.104-0.359c-0.321-0.062-0.887-0.08-1.693-0.062C164.914,165.949,164.289,165.973,164.002,166.021
	 M165.332,163.042c-0.3,0.422-0.607,0.765-0.93,1.035c0.762-0.056,1.564-0.08,2.414-0.056c0.428,0.002,0.781,0.037,1.062,0.086
	c-0.239-0.17-0.461-0.308-0.66-0.406c-0.258-0.139-0.532-0.26-0.819-0.359C166.098,163.213,165.741,163.113,165.332,163.042
	 M168.225,168.255c0.229,0.04,0.457,0.056,0.674,0.047c0.379,0,0.615,0.114,0.72,0.343c0.079,0.219,0.065,0.414-0.048,0.586
	c-0.178,0.269-0.411,0.381-0.701,0.345c-0.219-0.05-0.477-0.168-0.764-0.36c-0.379-0.253-0.644-0.47-0.795-0.66
	c-0.18-0.207-0.233-0.348-0.164-0.42c0.09-0.08,0.215-0.094,0.375-0.043C167.74,168.15,167.975,168.206,168.225,168.255"/>
<path fill="#398439" d="M176.205,164.631l0.018,0.029c-0.093,0.031-0.148,0.16-0.182,0.39c-0.04,0.5-0.135,0.908-0.284,1.229
	c-0.198,0.379-0.421,0.684-0.659,0.914c-0.221,0.229-0.459,0.418-0.719,0.57c-0.211,0.178-0.429,0.275-0.66,0.295
	c-0.187,0.021-0.369-0.02-0.539-0.117c-0.148-0.131-0.188-0.291-0.119-0.479c0.08-0.221,0.289-0.438,0.631-0.659
	c0.209-0.169,0.408-0.371,0.599-0.599c0.181-0.22,0.326-0.483,0.435-0.794c0.131-0.32,0.203-0.65,0.225-0.988
	c0.039-0.456,0.029-1.04-0.03-1.736c-0.04-0.57,0.081-0.979,0.358-1.226c0.339-0.28,0.718-0.379,1.123-0.29l-0.015,0.02h0.886
	c0.658-0.022,1.074-0.039,1.242-0.049c0.451-0.06,0.771-0.064,0.957-0.014c0.184,0.027,0.312,0.083,0.391,0.167
	c0.103,0.099,0.08,0.337-0.06,0.716c-0.059,0.189-0.114,0.444-0.161,0.764c-0.022,0.34-0.027,0.601-0.02,0.779
	c0.021,0.229-0.014,0.413-0.104,0.557c-0.158,0.197-0.453,0.277-0.871,0.238c-0.328-0.033-0.912,0.014-1.75,0.133
	C176.527,164.532,176.292,164.582,176.205,164.631 M175.547,159.404c-0.041-0.17,0.064-0.352,0.316-0.541
	c0.287-0.197,0.525-0.301,0.718-0.313c0.211,0.013,0.469,0.062,0.776,0.149c0.15,0.042,0.297,0.072,0.437,0.092
	c0.128,0.018,0.483,0.084,1.063,0.195c0.336,0.059,0.58,0.16,0.718,0.299c0.143,0.142,0.143,0.279,0,0.421
	c-0.158,0.147-0.444,0.203-0.853,0.16c-0.968-0.089-1.852-0.144-2.649-0.16C175.773,159.675,175.596,159.573,175.547,159.404
	 M178.527,163.416c0.119-0.168,0.186-0.436,0.195-0.809c0.02-0.31-0.024-0.512-0.136-0.612c-0.06-0.06-0.463-0.073-1.216-0.044
	c-0.729,0.029-1.114,0.068-1.167,0.119c-0.188,0.18-0.293,0.449-0.312,0.809c0.01,0.359,0.062,0.578,0.162,0.66
	c0.041,0.021,0.445,0.009,1.213-0.031C178.102,163.467,178.518,163.438,178.527,163.416 M184.684,169.214
	c-0.078,0.16-0.188,0.242-0.328,0.242c-0.151-0.013-0.266-0.103-0.346-0.271c-0.18-0.49-0.251-1.086-0.209-1.785
	c0.039-0.945,0.062-2.026,0.073-3.231c-0.011-0.43-0.062-0.756-0.149-0.976c-0.32-0.021-0.67-0.004-1.051,0.045
	c-0.378,0.029-0.639,0.087-0.773,0.162c-0.034,0-0.059,0.013-0.076,0.033c0.019,0.459,0.006,0.832-0.047,1.121
	c-0.108,0.644-0.299,1.17-0.567,1.588c-0.3,0.438-0.669,0.803-1.106,1.094c-0.42,0.252-0.761,0.289-1.02,0.119
	c-0.291-0.229-0.415-0.438-0.375-0.625c0.061-0.223,0.258-0.39,0.6-0.496c0.379-0.164,0.723-0.426,1.032-0.795
	c0.278-0.36,0.456-0.818,0.522-1.377c0.062-0.5,0.033-1.129-0.09-1.888c-0.119-0.542-0.129-0.932-0.026-1.182
	c0.14-0.322,0.528-0.507,1.167-0.558c0.525-0.086,1.118-0.244,1.766-0.468c0.569-0.187,0.926-0.335,1.065-0.444
	c0.228-0.213,0.454-0.271,0.674-0.181c0.239,0.066,0.409,0.203,0.509,0.405c0.118,0.197,0.124,0.398,0.014,0.602
	c-0.129,0.215-0.508,0.373-1.137,0.461c-0.393,0.049-0.852,0.1-1.377,0.15c-0.339,0.031-0.611,0.055-0.81,0.072
	c-0.39,0.062-0.646,0.18-0.763,0.361c-0.111,0.2-0.144,0.504-0.094,0.914c0.129-0.062,0.291-0.078,0.479-0.047
	c0.22,0.039,0.417,0.057,0.588,0.047c1.058-0.062,2.328-0.065,3.815-0.017c0.301-0.011,0.41,0.131,0.33,0.419
	c-0.07,0.291-0.236,0.523-0.496,0.702c-0.25,0.192-0.562,0.207-0.942,0.048c-0.17-0.082-0.358-0.139-0.567-0.178
	c-0.08,0.193-0.119,0.426-0.119,0.681c0,0.804,0.01,2.218,0.026,4.243C184.889,168.62,184.822,168.953,184.684,169.214"/>
</svg>
